<svg width="366.1" height="79" version="1.1" id="Layer_1" xmlns="http://www.w3.org/2000/svg" xmlns:xlink="http://www.w3.org/1999/xlink" x="0px" y="0px" viewBox="0 0 366.1 79" style="enable-background:new 0 0 366.1 79;" xml:space="preserve">
<style type="text/css">
	.st0{fill:#00313C;}
	.st1{fill:#FFFFFF;}
</style>
<path class="st0" d="M111.3,0H0v79h111.3V0z"/>
<path class="st0" d="M134.6,56.6c1.8,0,3.6,0,5.1,1c1.8,1.1,2.7,2.8,2.7,4.9c0,2.5-1.7,4.2-4,4.8v0.1c2.8,0.6,4.7,2.7,4.7,5.6  c0,2-1.2,3.7-2.7,4.8c-1.6,1.2-3.8,1.2-5.7,1.2h-10V56.6H134.6z M129.8,65.5h3.6c0.9,0,2,0.1,2.8-0.5c0.6-0.5,0.9-1.3,0.9-2  c0-0.8-0.4-1.6-1.1-2c-0.8-0.4-2.1-0.3-3-0.3h-3.2V65.5z M129.8,74.8h3.6c0.9,0,2.2,0.1,3-0.5c0.8-0.5,1.2-1.4,1.2-2.3  c0-0.8-0.5-1.7-1.3-2.2c-0.8-0.4-1.8-0.4-2.6-0.4h-3.9V74.8z"/>
<path class="st0" d="M152.9,60.9v4.5h8.5v4.2h-8.5v5h10.8V79h-16V56.6h16v4.3H152.9z"/>
<path class="st0" d="M173.6,79h-5.2V56.6h9.4c2,0,4,0,5.7,1.1c1.8,1.2,2.8,3.4,2.8,5.6c0,2.5-1.5,4.9-3.9,5.8l4.1,9.9h-5.8l-3.4-8.8  h-3.8V79z M173.6,66.3h2.9c1.1,0,2.3,0.1,3.2-0.5c0.8-0.5,1.3-1.6,1.3-2.5c0-0.9-0.5-1.8-1.3-2.3c-0.9-0.6-2.4-0.4-3.4-0.4h-2.7  V66.3z"/>
<path class="st0" d="M196.6,67.1l7-10.5h5l-5.4,8L210,79h-5.8l-4.4-9.7l-3.2,4.5V79h-5.1V56.6h5.1V67.1z"/>
<path class="st0" d="M219.2,60.9v4.5h8.5v4.2h-8.5v5H230V79h-16V56.6h16v4.3H219.2z"/>
<path class="st0" d="M248.6,74.5V79h-14.2V56.6h5.2v18H248.6z"/>
<path class="st0" d="M257.7,60.9v4.5h8.5v4.2h-8.5v5h10.8V79h-16V56.6h16v4.3H257.7z"/>
<path class="st0" d="M283.5,69.5V79h-5.2v-9.4l-7.1-13h6.1l4.3,8.5l4.2-8.5h4.7L283.5,69.5z"/>
<path class="st0" d="M319.8,74.5V79h-14.2V56.6h5.2v18H319.8z"/>
<path class="st0" d="M343.4,79h-5.6l-1.4-4.6h-7.2l-1.4,4.6h-4.6l7.2-22.4h6.1L343.4,79z M335.2,70.3l-2.4-7.9l-2.4,7.9H335.2z"/>
<path class="st0" d="M357.6,56.6c1.8,0,3.6,0,5.1,1c1.8,1.1,2.7,2.8,2.7,4.9c0,2.5-1.7,4.2-4,4.8v0.1c2.8,0.6,4.7,2.7,4.7,5.6  c0,2-1.2,3.7-2.7,4.8c-1.6,1.2-3.8,1.2-5.7,1.2h-10V56.6H357.6z M352.8,65.5h3.6c0.9,0,2,0.1,2.8-0.5c0.6-0.5,0.9-1.3,0.9-2  c0-0.8-0.4-1.6-1.1-2c-0.8-0.4-2.1-0.3-3-0.3h-3.2V65.5z M352.8,74.8h3.6c0.9,0,2.2,0.1,3-0.5c0.8-0.5,1.2-1.4,1.2-2.3  c0-0.8-0.5-1.7-1.3-2.2c-0.8-0.4-1.8-0.4-2.6-0.4h-3.9V74.8z"/>
<path class="st1" d="M96.6,79h-2.1V41.5l-5.6-7.6l-5.6,7.6V79h-2.1V40.8l7.7-10.5l7.7,10.5V79z"/>
<path class="st1" d="M14.6,50.6h3.8v-1.4h-7.2v5.2h3.5V50.6z"/>
<path class="st1" d="M24.5,50.6h3.8v-1.4H21v5.2h3.5V50.6z"/>
<path class="st1" d="M34.5,50.6h3.8v-1.4H31v5.2h3.5V50.6z"/>
<path class="st1" d="M44.4,50.6h3.8v-1.4H41v5.2h3.5V50.6z"/>
<path class="st1" d="M54.4,50.6h3.8v-1.4h-7.2v5.2h3.5V50.6z"/>
<path class="st1" d="M64.4,50.6h3.8v-1.4h-7.2v5.2h3.5V50.6z"/>
<path class="st1" d="M38.6,18.8l-0.9-0.5l-1,0.6l-7.9,4.3l0,2.9l8.8-4.8l8.8,4.8v-2.9L38.6,18.8z"/>
<path class="st1" d="M69,41c-8.7-8.4-20.1-13-32.3-13c-9.5,0-18.7,2.9-26.4,8.2L9.2,37v3.2l2.6-1.8c7.4-5.1,16-7.8,25-7.8  c11.6,0,22.6,4.5,30.8,12.6c0.2,0.2,0.6,0.4,0.9,0.4h4.6V79h2.6V41H69z"/>
<path class="st1" d="M88.2,45.5h-2.3v8.8h2.3V45.5z"/>
<path class="st1" d="M92.2,45.5h-2.3v8.8h2.3V45.5z"/>
</svg>