<?xml version="1.0" encoding="utf-8"?>
<!-- Generator: Adobe Illustrator 24.0.1, SVG Export Plug-In . SVG Version: 6.00 Build 0)  -->
<svg version="1.1" id="Ebene_1" xmlns="http://www.w3.org/2000/svg" xmlns:xlink="http://www.w3.org/1999/xlink" x="0px" y="0px"
	 viewBox="0 0 300 76.1" style="enable-background:new 0 0 300 76.1;" xml:space="preserve">
<style type="text/css">
	.st0{fill:#6EACC0;}
	.st1{fill:#C01D75;}
</style>
<g>
	<defs>
		<rect id="SVGID_1_" x="-26.3" y="-39.5" width="352.5" height="155.1"/>
	</defs>
	<clipPath id="SVGID_2_">
		<use xlink:href="#SVGID_1_"  style="overflow:visible;"/>
	</clipPath>
</g>
<g>
	<path class="st0" d="M177.1,13.5c0,1.5-0.5,2.6-1.5,3.4c-1,0.7-2.4,1.1-4.2,1.1h-4.1V2h3.5c1.8,0,3.3,0.3,4.3,1
		c1,0.7,1.5,1.7,1.5,3c0,0.9-0.3,1.7-0.8,2.3c-0.5,0.6-1.2,1-2.1,1.2C175.9,9.9,177.1,11.2,177.1,13.5 M169.4,3.6v5.2h2
		c0.9,0,1.6-0.2,2.1-0.7c0.5-0.5,0.8-1.1,0.8-1.9c0-0.9-0.3-1.6-0.8-2c-0.6-0.4-1.4-0.6-2.5-0.6H169.4z M173.9,15.6
		c0.6-0.4,0.9-1.2,0.9-2.2c0-2-1.1-3-3.3-3h-2.2v5.9h2C172.5,16.3,173.3,16.1,173.9,15.6"/>
	<path class="st0" d="M188,12.6h-7.1c0.1,1.4,0.3,2.5,0.9,3.1c0.5,0.6,1.2,0.9,2.1,0.9c0.6,0,1.1-0.1,1.5-0.3
		c0.4-0.2,0.9-0.4,1.4-0.8l0.9,1.2c-1.1,1-2.4,1.5-3.9,1.5c-1.6,0-2.8-0.6-3.7-1.7c-0.9-1.1-1.3-2.7-1.3-4.7c0-2,0.4-3.6,1.3-4.8
		c0.8-1.2,2-1.8,3.5-1.8c1.5,0,2.6,0.5,3.4,1.6c0.8,1,1.2,2.5,1.2,4.5C188,11.8,188,12.2,188,12.6 M186,10.9c0-2.6-0.8-3.8-2.5-3.8
		c-0.8,0-1.4,0.3-1.8,1c-0.5,0.6-0.7,1.7-0.8,3.1h5.1V10.9z"/>
	<path class="st0" d="M196.4,5.6l-0.3,2c-0.3-0.1-0.6-0.1-1-0.1c-0.7,0-1.2,0.3-1.7,0.8c-0.4,0.5-0.8,1.4-1,2.5V18h-2.1V5.8h1.8
		l0.2,2.4c0.6-1.8,1.6-2.7,3-2.7C195.7,5.5,196.1,5.5,196.4,5.6"/>
	<path class="st0" d="M198.6,17.6c-0.4-0.4-0.7-1.1-0.7-1.9V0.8l2.1-0.2v15.1c0,0.6,0.2,0.9,0.7,0.9c0.2,0,0.4,0,0.7-0.1l0.5,1.5
		c-0.5,0.3-1,0.4-1.6,0.4C199.6,18.3,199.1,18.1,198.6,17.6"/>
	<path class="st0" d="M205.7,0.4c0.3,0.3,0.4,0.6,0.4,1c0,0.4-0.1,0.7-0.4,1c-0.2,0.3-0.6,0.4-1,0.4c-0.4,0-0.7-0.1-1-0.4
		c-0.3-0.3-0.4-0.6-0.4-1c0-0.4,0.1-0.7,0.4-1c0.3-0.3,0.6-0.4,1-0.4C205.2,0,205.5,0.1,205.7,0.4 M205.8,18h-2.1V5.8h2.1V18z"/>
	<path class="st0" d="M216.5,6.4c0.5,0.6,0.8,1.5,0.8,2.7V18h-2.1V9.3c0-0.8-0.1-1.4-0.4-1.7c-0.3-0.3-0.7-0.5-1.2-0.5
		c-1,0-2,0.7-2.8,2.2V18h-2.1V5.8h1.8l0.2,1.8c0.9-1.4,2.1-2.1,3.5-2.1C215.2,5.5,216,5.8,216.5,6.4"/>
	<rect x="226.1" y="2" class="st0" width="2.2" height="16"/>
	<path class="st0" d="M239,6.4c0.6,0.6,0.8,1.5,0.8,2.7V18h-2.1V9.3c0-0.8-0.1-1.4-0.4-1.7c-0.3-0.3-0.7-0.5-1.2-0.5
		c-1,0-2,0.7-2.8,2.2V18h-2.1V5.8h1.8l0.2,1.8c0.9-1.4,2.1-2.1,3.5-2.1C237.7,5.5,238.4,5.8,239,6.4"/>
	<path class="st0" d="M249.9,6.9L249,8.1c-0.5-0.3-1-0.6-1.4-0.8c-0.4-0.2-0.9-0.3-1.4-0.3c-0.6,0-1.1,0.2-1.5,0.5
		c-0.4,0.3-0.5,0.7-0.5,1.2c0,0.5,0.2,0.9,0.5,1.2c0.3,0.3,1,0.6,2,0.9c1.2,0.4,2.1,0.9,2.7,1.4c0.6,0.6,0.8,1.3,0.8,2.3
		c0,1.1-0.4,2-1.3,2.7c-0.8,0.7-1.9,1-3.1,1c-1.7,0-3.1-0.6-4.2-1.7l1.1-1.2c1,0.8,2,1.2,3.1,1.2c0.7,0,1.2-0.2,1.7-0.5
		c0.4-0.3,0.6-0.8,0.6-1.4c0-0.4-0.1-0.8-0.2-1c-0.1-0.3-0.4-0.5-0.8-0.7c-0.4-0.2-0.9-0.4-1.7-0.7c-1.2-0.4-2-0.9-2.5-1.4
		c-0.5-0.5-0.8-1.2-0.8-2.1c0-0.6,0.2-1.2,0.5-1.7c0.3-0.5,0.8-0.9,1.4-1.2c0.6-0.3,1.3-0.4,2.1-0.4C247.5,5.5,248.8,5.9,249.9,6.9"
		/>
	<path class="st0" d="M258.7,17.5c-0.8,0.6-1.6,0.8-2.6,0.8c-1,0-1.8-0.3-2.3-0.9c-0.5-0.6-0.8-1.4-0.8-2.4V7.3h-1.7V5.8h1.7V3
		l2.1-0.3v3.1h2.7l-0.2,1.6h-2.5V15c0,1.1,0.4,1.6,1.3,1.6c0.3,0,0.5,0,0.7-0.1c0.2-0.1,0.5-0.2,0.8-0.3L258.7,17.5z"/>
	<path class="st0" d="M262.3,0.4c0.3,0.3,0.4,0.6,0.4,1c0,0.4-0.1,0.7-0.4,1c-0.2,0.3-0.6,0.4-1,0.4c-0.4,0-0.7-0.1-1-0.4
		c-0.3-0.3-0.4-0.6-0.4-1c0-0.4,0.1-0.7,0.4-1c0.3-0.3,0.6-0.4,1-0.4C261.7,0,262,0.1,262.3,0.4 M262.3,18h-2.1V5.8h2.1V18z"/>
	<path class="st0" d="M271.6,17.5c-0.8,0.6-1.6,0.8-2.6,0.8c-1,0-1.8-0.3-2.3-0.9c-0.5-0.6-0.8-1.4-0.8-2.4V7.3h-1.7V5.8h1.7V3
		l2.1-0.3v3.1h2.7l-0.2,1.6H268V15c0,1.1,0.4,1.6,1.3,1.6c0.3,0,0.5,0,0.7-0.1c0.2-0.1,0.5-0.2,0.8-0.3L271.6,17.5z"/>
	<path class="st0" d="M281.3,18h-1.8l-0.1-1.8c-0.9,1.4-2,2.1-3.4,2.1c-1,0-1.7-0.3-2.3-1c-0.6-0.6-0.8-1.5-0.8-2.6v-9h2.1v8.8
		c0,0.7,0.1,1.2,0.4,1.6c0.3,0.3,0.7,0.5,1.2,0.5c1,0,1.9-0.7,2.7-2V5.8h2.1V18z"/>
	<path class="st0" d="M290.3,17.5c-0.8,0.6-1.6,0.8-2.6,0.8c-1,0-1.8-0.3-2.3-0.9c-0.5-0.6-0.8-1.4-0.8-2.4V7.3h-1.7V5.8h1.7V3
		l2.1-0.3v3.1h2.7l-0.2,1.6h-2.5V15c0,1.1,0.4,1.6,1.3,1.6c0.3,0,0.5,0,0.7-0.1c0.2-0.1,0.5-0.2,0.8-0.3L290.3,17.5z"/>
	<path class="st0" d="M300,12.6h-7.1c0.1,1.4,0.3,2.5,0.9,3.1c0.5,0.6,1.2,0.9,2.1,0.9c0.6,0,1.1-0.1,1.5-0.3
		c0.4-0.2,0.9-0.4,1.4-0.8l0.9,1.2c-1.1,1-2.4,1.5-3.9,1.5c-1.6,0-2.8-0.6-3.7-1.7c-0.9-1.1-1.3-2.7-1.3-4.7c0-2,0.4-3.6,1.3-4.8
		c0.8-1.2,2-1.8,3.5-1.8c1.5,0,2.6,0.5,3.4,1.6c0.8,1,1.2,2.5,1.2,4.5C300,11.8,300,12.2,300,12.6 M298,10.9c0-2.6-0.8-3.8-2.5-3.8
		c-0.8,0-1.4,0.3-1.8,1c-0.5,0.6-0.7,1.7-0.8,3.1h5.1V10.9z"/>
	<path class="st0" d="M175,31c0.9,1.1,1.3,2.7,1.3,4.7c0,2-0.4,3.6-1.3,4.7c-0.9,1.2-2.1,1.7-3.6,1.7c-1.6,0-2.8-0.6-3.7-1.7
		c-0.9-1.1-1.3-2.7-1.3-4.7c0-2,0.4-3.6,1.3-4.7c0.9-1.1,2.1-1.7,3.7-1.7C172.9,29.3,174.2,29.9,175,31 M169.3,32.2
		c-0.5,0.8-0.7,2-0.7,3.6c0,3.2,0.9,4.8,2.8,4.8c1.9,0,2.8-1.6,2.8-4.8c0-1.6-0.2-2.8-0.7-3.6s-1.2-1.1-2.1-1.1
		S169.8,31.4,169.3,32.2"/>
	<path class="st0" d="M181.6,26.5c-0.3,0.3-0.4,0.7-0.4,1.3v1.8h2.7l-0.2,1.6h-2.5v10.6h-2.1V31.2h-1.8v-1.6h1.8v-1.8
		c0-1,0.3-1.8,0.9-2.5c0.6-0.6,1.5-0.9,2.6-0.9c0.9,0,1.8,0.2,2.7,0.7l-0.6,1.4c-0.6-0.3-1.3-0.5-1.9-0.5
		C182.2,26.1,181.8,26.2,181.6,26.5"/>
	<polygon class="st0" points="199,41.9 199,34.4 193.2,34.4 193.2,41.9 191.1,41.9 191.1,25.9 193.2,25.9 193.2,32.6 199,32.6 
		199,25.9 201.2,25.9 201.2,41.9 	"/>
	<path class="st0" d="M212.7,36.5h-7.1c0.1,1.4,0.3,2.5,0.9,3.1c0.5,0.6,1.2,0.9,2.1,0.9c0.6,0,1.1-0.1,1.5-0.3
		c0.4-0.2,0.9-0.4,1.4-0.8l0.9,1.2c-1.1,1-2.4,1.5-3.9,1.5c-1.6,0-2.8-0.6-3.7-1.7s-1.3-2.7-1.3-4.7c0-2,0.4-3.6,1.3-4.8
		c0.8-1.2,2-1.8,3.5-1.8c1.5,0,2.6,0.5,3.4,1.6c0.8,1,1.2,2.5,1.2,4.5C212.7,35.7,212.7,36.1,212.7,36.5 M210.7,34.7
		c0-2.6-0.8-3.8-2.5-3.8c-0.8,0-1.4,0.3-1.8,1c-0.4,0.6-0.7,1.7-0.8,3.1h5.1V34.7z"/>
	<path class="st0" d="M222.8,40.2c0.1,0.2,0.4,0.4,0.7,0.5l-0.4,1.4c-0.6-0.1-1.1-0.3-1.4-0.6c-0.3-0.3-0.6-0.7-0.7-1.3
		c-0.8,1.2-1.9,1.9-3.3,1.9c-1.1,0-1.9-0.3-2.6-1c-0.6-0.7-1-1.6-1-2.7c0-1.3,0.4-2.3,1.3-3c0.9-0.7,2.1-1,3.6-1h1.6v-1
		c0-0.9-0.2-1.5-0.5-1.8c-0.3-0.4-0.9-0.6-1.7-0.6c-0.9,0-1.8,0.2-3,0.7l-0.5-1.5c1.4-0.6,2.6-0.8,3.8-0.8c2.6,0,4,1.3,4,4v5.8
		C222.6,39.6,222.7,39.9,222.8,40.2 M220.5,38.7v-2.9h-1.3c-2,0-3,0.8-3,2.5c0,0.7,0.2,1.3,0.5,1.7c0.3,0.4,0.8,0.6,1.4,0.6
		C219.1,40.6,220,39.9,220.5,38.7"/>
	<path class="st0" d="M226.2,41.5c-0.4-0.4-0.7-1.1-0.7-1.9V24.7l2.1-0.2v15.1c0,0.6,0.2,0.9,0.7,0.9c0.2,0,0.4,0,0.7-0.1l0.5,1.5
		c-0.5,0.3-1,0.4-1.6,0.4C227.2,42.2,226.6,41.9,226.2,41.5"/>
	<path class="st0" d="M237.1,41.3c-0.8,0.6-1.6,0.8-2.6,0.8c-1,0-1.8-0.3-2.3-0.9c-0.5-0.6-0.8-1.4-0.8-2.4v-7.7h-1.7v-1.6h1.7v-2.8
		l2.1-0.3v3.1h2.7l-0.2,1.6h-2.5v7.6c0,1.1,0.4,1.6,1.3,1.6c0.3,0,0.5,0,0.7-0.1c0.2-0.1,0.5-0.2,0.8-0.3L237.1,41.3z"/>
	<path class="st0" d="M246.4,30.3c0.5,0.7,0.8,1.5,0.8,2.7v8.9h-2.1v-8.6c0-0.8-0.1-1.4-0.4-1.7S244,31,243.5,31c-1,0-2,0.7-2.8,2.2
		v8.7h-2.1V24.7l2.1-0.2v6.9c0.4-0.7,0.9-1.2,1.5-1.5c0.5-0.3,1.2-0.5,1.9-0.5C245.1,29.3,245.8,29.7,246.4,30.3"/>
	<path class="st0" d="M68.1,40.7c2.8,2.6,4.2,6.5,4.2,11.7c0,7.2-2.5,12.4-7.4,15.6c-5,3.2-11.8,4.9-20.6,4.9H24V2h17.6
		c9,0,15.8,1.5,20.7,4.5c4.8,3,7.2,7.5,7.2,13.7c0,4-1.2,7.3-3.5,9.9c-2.4,2.6-5.4,4.4-9.1,5.4C61.6,36.4,65.3,38.1,68.1,40.7
		 M38.8,12.6v18.3h5.3c6.9,0,10.4-3.1,10.4-9.4c0-3.1-0.9-5.4-2.7-6.8c-1.8-1.4-4.7-2.1-8.7-2.1H38.8z M53.8,59.7
		c2.2-1.5,3.2-4.2,3.2-8c0-7.2-4-10.8-11.9-10.8h-6.4v21h5.5C48.5,62,51.7,61.2,53.8,59.7"/>
	<rect x="79.8" y="2" class="st0" width="14.8" height="71"/>
	<polygon class="st0" points="140.6,72.9 140.6,41.8 120.9,41.8 120.9,72.9 106.2,72.9 106.2,2 120.9,2 120.9,30.1 140.6,30.1 
		140.6,2 155.4,2 155.4,72.9 	"/>
	<rect y="31" class="st1" width="13.3" height="41.9"/>
	<path class="st0" d="M180.4,57.1c1.1,0.6,1.9,1.5,2.5,2.6c0.6,1.1,0.8,2.4,0.8,3.8c0,1.1-0.2,2.3-0.5,3.5c-0.4,1.2-0.9,2.2-1.6,3
		c-0.7,0.8-1.7,1.2-2.7,1.2c-0.7,0-1.3-0.2-1.6-0.7c-0.4-0.4-0.6-1-0.6-1.6c-0.8,1.5-1.8,2.2-3,2.2c-0.9,0-1.6-0.3-2.1-1
		c-0.5-0.6-0.8-1.5-0.8-2.6c0-1.1,0.2-2.2,0.5-3.2s0.9-1.9,1.7-2.6c0.8-0.7,1.8-1,3-1c1,0,2,0.3,2.9,0.8l-0.9,6.2c0,0.4,0,0.6,0,0.7
		c0,0.4,0.1,0.7,0.2,0.9c0.1,0.2,0.4,0.3,0.8,0.3c0.7,0,1.2-0.3,1.7-1c0.5-0.7,0.8-1.5,1-2.5c0.2-1,0.3-2,0.3-2.9
		c0-1.8-0.5-3.2-1.4-4.2c-1-1-2.3-1.5-4.1-1.5c-2,0-3.6,0.5-4.8,1.6c-1.3,1-2.2,2.4-2.7,3.9c-0.6,1.5-0.8,3.1-0.8,4.6
		c0,1.3,0.2,2.5,0.7,3.5s1.2,1.8,2.1,2.4c0.9,0.6,2,0.9,3.2,0.9c1.3,0,2.6-0.2,3.9-0.7l0.3,1.5c-0.7,0.3-1.5,0.5-2.1,0.6
		c-0.7,0.1-1.4,0.2-2.2,0.2c-1.5,0-2.9-0.4-4.1-1.1c-1.2-0.7-2.1-1.7-2.7-2.9c-0.6-1.3-1-2.7-1-4.3c0-1.8,0.4-3.5,1.1-5.3
		c0.7-1.8,1.9-3.3,3.4-4.5c1.6-1.2,3.5-1.8,5.9-1.8C177.9,56.1,179.3,56.4,180.4,57.1 M175.3,69.1c0.4-0.5,0.7-0.9,0.9-1.4l0.8-5.3
		c-0.4-0.2-0.8-0.2-1.2-0.2c-1.2,0-2.1,0.6-2.6,1.7c-0.5,1.1-0.8,2.4-0.8,3.9c0,1.4,0.5,2.1,1.4,2.1
		C174.4,69.8,174.9,69.5,175.3,69.1"/>
	<path class="st0" d="M196.2,57.8c0.6,0.3,1.1,0.6,1.6,1.1l-1.1,1.1c-0.4-0.3-0.8-0.6-1.2-0.8c-0.4-0.2-0.8-0.2-1.3-0.2
		c-1.1,0-2.1,0.4-2.8,1.3c-0.7,0.9-1.3,1.9-1.6,3.2c-0.3,1.3-0.5,2.5-0.5,3.8c0,1.4,0.3,2.3,0.8,3c0.5,0.6,1.2,1,2.1,1
		c0.6,0,1.1-0.1,1.5-0.3c0.4-0.2,0.9-0.5,1.5-0.9l0.8,1.3c-1.2,1.1-2.6,1.6-4.1,1.6c-1.4,0-2.6-0.5-3.4-1.5c-0.8-1-1.3-2.4-1.3-4.3
		c0-1.5,0.2-3.1,0.7-4.6c0.5-1.5,1.3-2.7,2.3-3.7c1-1,2.3-1.5,3.9-1.5C195,57.4,195.7,57.5,196.2,57.8"/>
	<path class="st0" d="M206.1,61.7c0.5,0.5,0.7,1.2,0.7,2c0,0.3,0,0.6,0,0.7l-1.2,8.2h-1.9l1.1-8.2c0-0.3,0-0.5,0-0.6
		c0-0.9-0.4-1.3-1.1-1.3c-1,0-2.1,1-3.2,3.1l-1,7h-1.9l2.3-16.1l1.9-0.2l-1,6.9c1-1.6,2.1-2.3,3.4-2.3
		C205.1,60.9,205.7,61.2,206.1,61.7"/>
	<path class="st0" d="M217.9,61.8l-1.2,8.2c0,0.3,0,0.5,0,0.6c0,0.2,0,0.4,0.1,0.6c0.1,0.2,0.2,0.3,0.5,0.4l-0.6,1.3
		c-0.5-0.1-1-0.3-1.3-0.6c-0.3-0.3-0.5-0.7-0.5-1.3c-0.4,0.6-0.9,1.1-1.4,1.4c-0.5,0.3-1.1,0.5-1.7,0.5c-1,0-1.8-0.4-2.4-1.1
		c-0.6-0.7-0.9-1.8-0.9-3c0-1.2,0.2-2.4,0.6-3.6c0.4-1.2,1.1-2.2,1.9-3c0.9-0.8,2-1.2,3.3-1.2C215.5,60.9,216.7,61.2,217.9,61.8
		 M212.2,63.4c-0.6,0.6-1,1.4-1.3,2.4c-0.3,1-0.4,2-0.4,3c0,1.7,0.6,2.6,1.7,2.6c0.5,0,1-0.2,1.4-0.5s0.9-0.9,1.4-1.5l0.9-6.6
		c-0.5-0.2-1-0.3-1.5-0.3C213.5,62.5,212.8,62.8,212.2,63.4"/>
	<path class="st0" d="M226.5,61.1l-0.6,1.8c-0.3-0.1-0.6-0.1-0.9-0.1c-0.6,0-1.2,0.3-1.7,0.9c-0.5,0.6-0.9,1.6-1.3,2.8l-0.9,6.2
		h-1.9l1.6-11.5h1.6l-0.2,2.2c0.4-0.8,0.8-1.4,1.4-1.8c0.5-0.4,1.1-0.6,1.7-0.6C225.8,60.9,226.2,61,226.5,61.1"/>
	<path class="st0" d="M230,61.2l-1.6,11.5h-1.9l1.6-11.5H230z M228.6,58c-0.2-0.2-0.3-0.5-0.3-0.8c0-0.4,0.1-0.8,0.4-1
		c0.3-0.3,0.6-0.4,1-0.4c0.4,0,0.7,0.1,0.9,0.3c0.2,0.2,0.3,0.5,0.3,0.9c0,0.4-0.1,0.8-0.4,1c-0.3,0.3-0.6,0.4-1,0.4
		C229.1,58.3,228.8,58.2,228.6,58"/>
	<path class="st0" d="M234.1,69.9c0,0.1,0,0.2,0,0.4c0,0.3,0.1,0.6,0.2,0.8c0.2,0.2,0.4,0.2,0.7,0.2c0.2,0,0.5,0,0.7-0.1
		c0.2-0.1,0.5-0.2,0.8-0.3l0.6,1.3c-0.7,0.5-1.5,0.8-2.4,0.8c-0.8,0-1.4-0.2-1.9-0.7c-0.5-0.4-0.7-1.1-0.7-1.8c0-0.1,0-0.3,0-0.6
		l1-7.2h-1.7l0.2-1.5h1.8l0.7-2.7l1.5-0.2l-0.4,2.8h2.4l-0.4,1.5h-2.2L234.1,69.9z"/>
	<path class="st0" d="M245,67c-1.2,0.7-2.9,1.1-5.1,1.4v0.1c0,1.9,0.7,2.8,2.1,2.8c0.5,0,0.9-0.1,1.4-0.2c0.4-0.2,0.9-0.4,1.4-0.8
		l0.8,1.3c-1.2,0.9-2.5,1.4-3.8,1.4c-1.2,0-2.2-0.4-2.9-1.2c-0.7-0.8-1-1.9-1-3.2c0-1.2,0.2-2.4,0.6-3.6c0.4-1.2,1-2.1,1.8-2.9
		c0.8-0.8,1.9-1.1,3.2-1.1c1,0,1.9,0.3,2.4,0.8c0.6,0.5,0.9,1.2,0.9,2C246.9,65.3,246.2,66.3,245,67 M241.1,63.7
		c-0.6,0.9-0.9,1.9-1.1,3.2c1.7-0.2,2.9-0.5,3.7-1c0.8-0.4,1.2-1.1,1.2-2.1c0-0.4-0.1-0.7-0.3-1s-0.6-0.4-1.1-0.4
		C242.5,62.5,241.7,62.9,241.1,63.7 M245.7,55.3l0.7,1.6l-4.4,1.9l-0.5-1L245.7,55.3z"/>
</g>
</svg>
