<svg width="218" height="58" xmlns="http://www.w3.org/2000/svg"><g fill="none" fill-rule="evenodd"><path d="M0 58h218V0H0z"/><path d="M73.815 29.585c1.938.34 3.536 1.429 4.76 3.265 1.326-1.836 2.04-4.523 2.04-7.991 0-6.902-2.924-10.778-7.446-10.778s-7.446 3.876-7.446 10.778c0 6.903 2.924 10.778 7.446 10.778 1.462 0 2.788-.408 3.876-1.223-1.054-1.803-1.836-2.414-3.23-2.62v-2.21zm9.928 9.589c-2.142 0-4.454-.783-5.746-3.094-1.36.918-2.992 1.393-4.828 1.393-6.154 0-9.69-5.371-9.69-12.614 0-7.242 3.536-12.614 9.69-12.614s9.69 5.372 9.69 12.614c0 4.149-1.156 7.684-3.332 9.928 1.054 1.836 2.074 2.346 4.216 2.346v2.04zM97.92 19.453v17.68h-2.04v-2.787c-1.903 1.971-3.468 3.127-6.051 3.127-3.672 0-5.236-2.108-5.236-5.95v-12.07h2.04V31.32c0 2.924.883 4.523 3.604 4.523 2.175 0 3.4-1.326 5.644-3.368v-13.02h2.04zM111.86 26.729c-.407-3.637-2.006-5.95-5.1-5.983-3.604-.035-5.134 3.637-5.168 5.983h10.268zm-10.268 1.633c0 4.012 1.666 7.48 5.678 7.48 2.278 0 3.4-.782 5.168-3.57l1.666.884c-1.903 3.127-3.638 4.316-7.004 4.316-4.624 0-7.548-2.956-7.548-9.18 0-5.474 2.788-9.179 7.276-9.179 4.795 0 7.072 3.774 7.072 9.248h-12.308zM127.84 26.729c-.407-3.637-2.006-5.95-5.1-5.983-3.603-.035-5.133 3.637-5.168 5.983h10.268zm-10.268 1.633c0 4.012 1.666 7.48 5.678 7.48 2.278 0 3.4-.782 5.168-3.57l1.666.884c-1.903 3.127-3.638 4.316-7.004 4.316-4.623 0-7.548-2.956-7.548-9.18 0-5.474 2.788-9.179 7.277-9.179 4.794 0 7.072 3.774 7.072 9.248h-12.31zM131.717 37.133v-17.68h2.039v2.788c1.904-1.971 3.469-3.128 6.053-3.128 3.672 0 5.236 2.108 5.236 5.95v12.07h-2.041V25.268c0-2.924-.883-4.523-3.603-4.523-2.176 0-3.401 1.325-5.645 3.367v13.02h-2.04zM155.584 37.133V12.585h3.944l6.767 20.809h.067l6.8-20.81h3.944v24.549h-2.243V14.422h-.068l-7.379 22.71h-2.142l-7.377-22.71h-.069v22.71zM189.89 27.137c-8.091 1.769-9.18 3.435-9.18 5.678 0 1.939 1.327 3.027 3.162 3.027 1.905 0 4.25-1.123 6.019-2.924v-5.781zm.34 9.996l-.271-2.142c-2.11 1.667-3.707 2.482-6.426 2.482-2.754 0-4.863-1.7-4.863-4.623 0-4.828 3.945-5.713 11.323-7.344v-1.224c0-2.346-1.02-3.537-4.046-3.537-2.11 0-3.843 1.157-5.134 3.197l-1.36-.817c1.53-2.855 3.706-4.011 6.56-4.011 4.014 0 5.917 1.63 5.917 5.542v9.248c0 .883.068 2.04.273 3.229h-1.972zM194.038 37.133v-17.68h2.04v3.366h.068c.952-2.176 2.856-3.706 5.1-3.706h.918v1.972h-.918c-2.244 0-5.168 2.652-5.168 6.052v9.996h-2.04z" fill="black"/><path d="M203.287 19.453h14.278v23.936h-14.278z"/><path d="M210.393 33.835h.067l4.93-14.382h2.176L210.97 38.39c-1.19 3.468-2.447 4.998-5.643 4.998-.884 0-1.43-.068-1.905-.203V41.52c.613.068 1.258.238 2.04.238 1.428 0 2.993-1.258 3.978-4.897l-6.153-17.408h2.244l4.862 14.382zM66.325 44.562v7.33c0 1.002.436 1.525 1.408 1.525s1.423-.523 1.423-1.525v-7.33h2.002v7.346c0 2.306-1.364 3.28-3.425 3.28s-3.411-.974-3.411-3.28v-7.346h2.003zM72.32 55.043v-7.896h1.77v.9c.667-.58 1.292-1.045 2.046-1.045 1.12 0 1.7.566 1.7 2.03v6.01h-1.83v-5.806c0-.521-.174-.871-.667-.871-.378 0-.799.364-1.19.712v5.966h-1.83zM78.938 55.043h1.829v-7.896h-1.829v7.896zm.001-9.261h1.829v-1.655h-1.829v1.655zM84.643 52.227h.03l1.203-5.08h1.83l-2.149 7.895h-1.8l-2.148-7.895h1.83zM91.857 50.05v-.436c0-.696-.334-1.131-1.074-1.131s-1.074.435-1.074 1.13v.437h2.148zm-2.148 1.48v1.046c0 .784.464 1.13 1.074 1.13.769 0 1.074-.491 1.074-1.101h1.829c-.087 1.626-1.06 2.583-2.903 2.583-1.742 0-2.904-1.074-2.904-2.801v-2.584c0-1.727 1.162-2.801 2.904-2.801 1.698 0 2.903 1.074 2.903 2.686v1.842h-3.977zM94.702 55.043v-7.896h1.786v1.044h.028c.42-.783.973-1.19 1.887-1.19v1.975c-.305-.087-.653-.204-.972-.204-.595 0-.9.45-.9.872v5.399H94.7zM102.874 49.557c-.247-.727-.711-1.074-1.263-1.074-.421 0-.74.304-.74.71 0 1.219 3.57 1.249 3.57 3.6 0 1.569-1.103 2.395-2.627 2.395-1.103 0-2.09-.276-2.975-2.25l1.64-.45c.16.74.61 1.219 1.335 1.219.552 0 .886-.26.886-.696 0-1.51-3.571-1.146-3.571-3.804 0-1.494 1.205-2.205 2.497-2.205 1.364 0 2.308.784 2.758 1.974l-1.51.58zM105.196 55.043h1.829v-7.896h-1.829v7.896zm0-9.261h1.829v-1.655h-1.829v1.655zM107.925 48.975v-1.48h.726v-2.148h1.829v2.148h1.175v1.48h-1.175v4.035c0 .393.334.582.827.582.13 0 .247 0 .363-.015v1.538a6.339 6.339 0 0 1-1.045.072c-1.191 0-1.974-.435-1.974-1.566v-4.646h-.726zM112.627 56.204c.175.028.35.028.537.028.799 0 1.321-.695 1.321-1.045 0-.463-.145-1.001-.333-1.669l-1.83-6.372h1.859l1.233 5.226h.029l1.147-5.226h1.858l-2.104 7.868c-.567 2.133-1.307 2.816-3.136 2.816-.174 0-.377-.015-.581-.029v-1.597zM123.89 52.662c0 .61.437.93 1.075.93.639 0 1.074-.32 1.074-.93v-3.135c0-.609-.435-.929-1.074-.929-.638 0-1.074.32-1.074.929v3.135zm-1.827-2.67c0-2.09 1.074-2.99 2.902-2.99 1.83 0 2.904.9 2.904 2.99v2.205c0 2.091-1.074 2.99-2.904 2.99-1.828 0-2.902-.899-2.902-2.99v-2.205zM132.223 46.015h-.522c-.435 0-.624.276-.624.667v.813h1.088v1.48h-1.088v6.068h-1.83v-6.067h-.827v-1.481h.828v-.754c0-1.83.769-2.323 2.104-2.323.262 0 .566.043.87.087v1.51zM136.549 55.043v-10.48h2.003v8.709h3.222v1.77zM144.285 52.662c0 .61.436.93 1.074.93.64 0 1.074-.32 1.074-.93v-3.135c0-.609-.435-.929-1.074-.929-.638 0-1.074.32-1.074.929v3.135zm-1.829-2.67c0-2.09 1.074-2.99 2.903-2.99 1.828 0 2.903.9 2.903 2.99v2.205c0 2.091-1.075 2.99-2.903 2.99-1.829 0-2.903-.899-2.903-2.99v-2.205zM149.424 55.043v-7.896h1.77v.9c.668-.58 1.293-1.045 2.046-1.045 1.119 0 1.7.566 1.7 2.03v6.01h-1.83v-5.806c0-.521-.174-.871-.667-.871-.378 0-.798.364-1.191.712v5.966h-1.828zM159.787 48.932c-.363-.391-.697-.566-1.104-.566-.493 0-.899.32-.899 1.887v1.685c0 1.566.406 1.887.9 1.887.406 0 .74-.175 1.103-.567v-4.326zm.145 6.11v-.957h-.029c-.319.493-1.132 1.103-1.945 1.103-1.423 0-2.003-1.103-2.003-3.135v-1.916c0-2.031.58-3.135 2.003-3.135.493 0 .958.233 1.83.87v-3.31h1.828v10.48h-1.684zM164.316 52.662c0 .61.436.93 1.075.93s1.073-.32 1.073-.93v-3.135c0-.609-.434-.929-1.073-.929-.638 0-1.075.32-1.075.929v3.135zm-1.83-2.67c0-2.09 1.075-2.99 2.905-2.99 1.828 0 2.903.9 2.903 2.99v2.205c0 2.091-1.076 2.99-2.904 2.99-1.83 0-2.903-.899-2.903-2.99v-2.205zM169.454 55.043v-7.896h1.771v.9c.667-.58 1.292-1.045 2.046-1.045 1.118 0 1.7.566 1.7 2.03v6.01h-1.83v-5.806c0-.521-.174-.871-.668-.871-.377 0-.798.364-1.19.712v5.966h-1.829zM26.084 36.283c-5.105 0-9.244-5.102-9.244-11.396 0-6.293 4.139-11.395 9.244-11.395 5.106 0 9.246 5.102 9.246 11.395 0 6.294-4.14 11.396-9.246 11.396m-.104-23.659c-6.885 0-12.465 5.515-12.465 12.32 0 6.802 5.58 12.32 12.465 12.32s12.466-5.518 12.466-12.32c0-6.805-5.581-12.32-12.466-12.32M0 13.51s9.021 6.375 4.914 14.093c0 0 6.07-8.297 8.105 3.376 0 0-1.744-2.645-5.111-1.984-2.943.578-3.307 2.856-3.307 2.856L0 13.511zM51.626 13.51s-9.021 6.375-4.914 14.093c0 0-6.07-8.297-8.105 3.376 0 0 1.744-2.645 5.111-1.984 2.942.578 3.307 2.856 3.307 2.856l4.601-18.34z" fill="black"/><path d="M14.357 37.92c1.322-.467 2.566-.873 4.186-1.49-.631-.361-1.465-1.06-2.066-1.572-1.594.572-3.067 1.143-3.988 1.458-.933.318-3.984 1.026-5.092-1.968-.812-2.196.749-3.594 2.255-3.594.564 0 1.138.215 1.136.289a1.396 1.396 0 1 0 1.391 1.397c0-.605-.308-1.068-.767-1.418-.62-.43-1.485-.685-2.305-.685-1.835 0-3.435 1.614-3.695 3.484-.296 2.12 2.029 6.54 8.945 4.099M7.154 41.467c-.278-.971.782-1.765 2.354-1.765h33.237c1.572 0 2.632.794 2.355 1.765-.28.97-1.788 1.67-3.356 1.553l-12.803-.95c-1.57-.117-4.134-.117-5.703 0l-12.73.95c-1.567.117-3.078-.582-3.354-1.553M28 11.418c-1.335-1.936-.545-3.146.36-3.141 1.436.009 1.961.819 1.953 2.117.77-.448 1.485-1.623 1.493-2.726.006-1.101-.853-2.128-1.954-2.135-1.346-.01-2.038.413-2.656 1.12.103-.22.213-.435.321-.643.233-.454.505-1.007.502-1.498-.003-.59-.283-1.237-.68-1.943-.378-.686-.916-1.706-1.275-2.57-.349.869-.873 1.895-1.243 2.586-.39.71-.66 1.36-.657 1.95.003.492.282 1.04.52 1.492.114.21.227.429.336.654-.625-.725-1.316-1.157-2.679-1.148-1.1.007-1.96 1.034-1.953 2.135.006 1.103.722 2.278 1.491 2.726-.008-1.298.518-2.108 1.953-2.117.905-.005 1.687 1.093.277 3.14 1.54-.375 2.406-.318 3.89 0M46.259 34.002c-.261-1.87-1.858-3.484-3.694-3.484-.821 0-1.685.254-2.305.683-.46.352-.768.814-.768 1.418a1.396 1.396 0 1 0 1.392-1.395c-.003-.076.572-.29 1.136-.29 1.506 0 3.066 1.398 2.254 3.593-1.108 2.996-4.16 2.288-5.092 1.969-.921-.314-5.08-1.9-6.673-2.473l-.087.074c-3.803-1.383-4.422-1.604-6.236-1.98-5.845-1.213-6.251 2.666-6.251 2.666 0 .135.496-1.715 4.367-1.318 1.588.16 2.53.596 6.184 2.103-.014.008-.03.02-.042.028 1.62.617 5.549 2.039 6.87 2.505 6.916 2.44 9.24-1.98 8.945-4.1" fill="black"/></g></svg>
